<svg width="21" height="20" viewBox="0 0 21 20" fill="none" xmlns="http://www.w3.org/2000/svg">
<g id="Group">
<path id="Vector" d="M11.7767 4.51261C11.7767 3.96032 11.329 3.51261 10.7767 3.51261H9.19642L9.83221 2.24112L13.1388 1.29642C13.4515 1.20708 13.6325 0.881163 13.5432 0.568465C13.4539 0.255774 13.1279 0.0747136 12.8152 0.164055L9.01051 1.25113L7.87979 3.51261H0.999999C0.447715 3.51261 0 3.96032 0 4.51261V5.45678C0 6.00907 0.447715 6.45678 1 6.45678H10.7767C11.329 6.45678 11.7767 6.00907 11.7767 5.45678V4.51261Z" fill="#FD3A69"/>
<path id="Vector_2" d="M8.24454 15.8781H18.8436V17.0558H8.24454V15.8781Z" fill="#FD3A69"/>
<path id="Vector_3" d="M5.8874 14.7007C5.8874 11.7955 7.80995 9.33108 10.4495 8.51252C10.4842 8.03839 10.1089 7.63464 9.63347 7.63464H2.843C2.00439 7.63464 1.34681 8.35473 1.42273 9.18989L2.24015 18.1813C2.3338 19.2114 3.19753 20.0002 4.23193 20.0002H6.20427C6.00317 19.6535 5.8874 19.2514 5.8874 18.8225V14.7007Z" fill="#FD3A69"/>
<path id="Vector_4" d="M7.06519 14.7005H20.0196C20.0196 11.7783 17.6422 9.40094 14.72 9.40094H12.3647C9.44255 9.40094 7.06519 11.7783 7.06519 14.7005Z" fill="#FD3A69"/>
<path id="Vector_5" d="M7.06519 18.8224C7.06519 19.4718 7.59349 20 8.24286 20H18.8407C19.49 20 20.0183 19.4718 20.0183 18.8224V18.2335H7.06519V18.8224Z" fill="#FD3A69"/>
</g>
</svg>
